<mxfile host="app.diagrams.net" modified="2023-11-08T08:52:10.026Z" agent="5.0 (Macintosh; Intel Mac OS X 10_15_7) AppleWebKit/537.36 (KHTML, like Gecko) Chrome/119.0.0.0 Safari/537.36" etag="bduXsjdwfYgbgy5Fg-Qz" version="14.9.0" type="github">
  <diagram id="iQoiORMkXziXauh1XZvG" name="Page-1">
    <mxGraphModel dx="1494" dy="863" grid="1" gridSize="10" guides="1" tooltips="1" connect="1" arrows="1" fold="1" page="1" pageScale="1" pageWidth="827" pageHeight="1169" math="0" shadow="0">
      <root>
        <mxCell id="0" />
        <mxCell id="1" parent="0" />
        <mxCell id="0HQkqBSqy673r9pZa76A-23" value="" style="endArrow=none;dashed=1;html=1;entryX=0.5;entryY=1;entryDx=0;entryDy=0;" edge="1" parent="1" target="0HQkqBSqy673r9pZa76A-1">
          <mxGeometry width="50" height="50" relative="1" as="geometry">
            <mxPoint x="160" y="480" as="sourcePoint" />
            <mxPoint x="440" y="400" as="targetPoint" />
          </mxGeometry>
        </mxCell>
        <mxCell id="0HQkqBSqy673r9pZa76A-24" value="" style="endArrow=none;dashed=1;html=1;entryX=0.5;entryY=1;entryDx=0;entryDy=0;" edge="1" parent="1">
          <mxGeometry width="50" height="50" relative="1" as="geometry">
            <mxPoint x="320" y="560" as="sourcePoint" />
            <mxPoint x="319.5" y="200" as="targetPoint" />
          </mxGeometry>
        </mxCell>
        <mxCell id="0HQkqBSqy673r9pZa76A-25" value="" style="endArrow=none;dashed=1;html=1;entryX=0.5;entryY=1;entryDx=0;entryDy=0;" edge="1" parent="1">
          <mxGeometry width="50" height="50" relative="1" as="geometry">
            <mxPoint x="480" y="560" as="sourcePoint" />
            <mxPoint x="479.5" y="200" as="targetPoint" />
          </mxGeometry>
        </mxCell>
        <mxCell id="0HQkqBSqy673r9pZa76A-26" value="" style="endArrow=none;dashed=1;html=1;entryX=0.5;entryY=1;entryDx=0;entryDy=0;" edge="1" parent="1">
          <mxGeometry width="50" height="50" relative="1" as="geometry">
            <mxPoint x="640" y="560" as="sourcePoint" />
            <mxPoint x="639.5" y="200" as="targetPoint" />
          </mxGeometry>
        </mxCell>
        <mxCell id="0HQkqBSqy673r9pZa76A-1" value="实例化" style="rounded=0;whiteSpace=wrap;html=1;" vertex="1" parent="1">
          <mxGeometry x="120" y="160" width="80" height="40" as="geometry" />
        </mxCell>
        <mxCell id="0HQkqBSqy673r9pZa76A-2" value="初始化" style="rounded=0;whiteSpace=wrap;html=1;" vertex="1" parent="1">
          <mxGeometry x="280" y="160" width="80" height="40" as="geometry" />
        </mxCell>
        <mxCell id="0HQkqBSqy673r9pZa76A-3" value="实例化" style="rounded=0;whiteSpace=wrap;html=1;" vertex="1" parent="1">
          <mxGeometry x="440" y="160" width="80" height="40" as="geometry" />
        </mxCell>
        <mxCell id="0HQkqBSqy673r9pZa76A-4" value="初始化" style="rounded=0;whiteSpace=wrap;html=1;" vertex="1" parent="1">
          <mxGeometry x="600" y="160" width="80" height="40" as="geometry" />
        </mxCell>
        <mxCell id="0HQkqBSqy673r9pZa76A-28" style="edgeStyle=orthogonalEdgeStyle;rounded=0;orthogonalLoop=1;jettySize=auto;html=1;exitX=1;exitY=0.75;exitDx=0;exitDy=0;entryX=0;entryY=0.75;entryDx=0;entryDy=0;fillColor=#dae8fc;strokeColor=#6c8ebf;" edge="1" parent="1" source="0HQkqBSqy673r9pZa76A-5" target="0HQkqBSqy673r9pZa76A-6">
          <mxGeometry relative="1" as="geometry" />
        </mxCell>
        <mxCell id="0HQkqBSqy673r9pZa76A-5" value="getBean(A.class)" style="rounded=0;whiteSpace=wrap;html=1;" vertex="1" parent="1">
          <mxGeometry x="120" y="240" width="80" height="40" as="geometry" />
        </mxCell>
        <mxCell id="0HQkqBSqy673r9pZa76A-13" style="edgeStyle=orthogonalEdgeStyle;rounded=0;orthogonalLoop=1;jettySize=auto;html=1;exitX=0.25;exitY=1;exitDx=0;exitDy=0;entryX=0.25;entryY=0;entryDx=0;entryDy=0;fillColor=#dae8fc;strokeColor=#6c8ebf;" edge="1" parent="1" source="0HQkqBSqy673r9pZa76A-6" target="0HQkqBSqy673r9pZa76A-7">
          <mxGeometry relative="1" as="geometry" />
        </mxCell>
        <mxCell id="0HQkqBSqy673r9pZa76A-30" style="edgeStyle=orthogonalEdgeStyle;rounded=0;orthogonalLoop=1;jettySize=auto;html=1;exitX=0;exitY=0.25;exitDx=0;exitDy=0;entryX=1;entryY=0.25;entryDx=0;entryDy=0;fillColor=#d5e8d4;strokeColor=#82b366;" edge="1" parent="1" source="0HQkqBSqy673r9pZa76A-6" target="0HQkqBSqy673r9pZa76A-5">
          <mxGeometry relative="1" as="geometry" />
        </mxCell>
        <mxCell id="0HQkqBSqy673r9pZa76A-6" value="实例化A对象" style="rounded=0;whiteSpace=wrap;html=1;" vertex="1" parent="1">
          <mxGeometry x="280" y="240" width="80" height="40" as="geometry" />
        </mxCell>
        <mxCell id="0HQkqBSqy673r9pZa76A-21" style="edgeStyle=orthogonalEdgeStyle;rounded=0;orthogonalLoop=1;jettySize=auto;html=1;exitX=0.75;exitY=0;exitDx=0;exitDy=0;entryX=0.75;entryY=1;entryDx=0;entryDy=0;fillColor=#d5e8d4;strokeColor=#82b366;" edge="1" parent="1" source="0HQkqBSqy673r9pZa76A-7" target="0HQkqBSqy673r9pZa76A-6">
          <mxGeometry relative="1" as="geometry" />
        </mxCell>
        <mxCell id="0HQkqBSqy673r9pZa76A-34" style="edgeStyle=orthogonalEdgeStyle;rounded=0;orthogonalLoop=1;jettySize=auto;html=1;exitX=1;exitY=0.75;exitDx=0;exitDy=0;entryX=0;entryY=0.75;entryDx=0;entryDy=0;fillColor=#dae8fc;strokeColor=#6c8ebf;" edge="1" parent="1" source="0HQkqBSqy673r9pZa76A-7" target="0HQkqBSqy673r9pZa76A-8">
          <mxGeometry relative="1" as="geometry" />
        </mxCell>
        <mxCell id="0HQkqBSqy673r9pZa76A-7" value="getBean(B.class)" style="rounded=0;whiteSpace=wrap;html=1;" vertex="1" parent="1">
          <mxGeometry x="280" y="360" width="80" height="40" as="geometry" />
        </mxCell>
        <mxCell id="0HQkqBSqy673r9pZa76A-15" style="edgeStyle=orthogonalEdgeStyle;rounded=0;orthogonalLoop=1;jettySize=auto;html=1;exitX=0.25;exitY=1;exitDx=0;exitDy=0;entryX=0.25;entryY=0;entryDx=0;entryDy=0;fillColor=#dae8fc;strokeColor=#6c8ebf;" edge="1" parent="1" source="0HQkqBSqy673r9pZa76A-8" target="0HQkqBSqy673r9pZa76A-9">
          <mxGeometry relative="1" as="geometry" />
        </mxCell>
        <mxCell id="0HQkqBSqy673r9pZa76A-41" style="edgeStyle=orthogonalEdgeStyle;rounded=0;orthogonalLoop=1;jettySize=auto;html=1;exitX=0;exitY=0.25;exitDx=0;exitDy=0;entryX=1;entryY=0.25;entryDx=0;entryDy=0;fillColor=#d5e8d4;strokeColor=#82b366;" edge="1" parent="1" source="0HQkqBSqy673r9pZa76A-8" target="0HQkqBSqy673r9pZa76A-7">
          <mxGeometry relative="1" as="geometry" />
        </mxCell>
        <mxCell id="0HQkqBSqy673r9pZa76A-8" value="实例化B对象" style="rounded=0;whiteSpace=wrap;html=1;" vertex="1" parent="1">
          <mxGeometry x="440" y="360" width="80" height="40" as="geometry" />
        </mxCell>
        <mxCell id="0HQkqBSqy673r9pZa76A-19" style="edgeStyle=orthogonalEdgeStyle;rounded=0;orthogonalLoop=1;jettySize=auto;html=1;exitX=0.75;exitY=0;exitDx=0;exitDy=0;entryX=0.75;entryY=1;entryDx=0;entryDy=0;fillColor=#d5e8d4;strokeColor=#82b366;" edge="1" parent="1" source="0HQkqBSqy673r9pZa76A-9" target="0HQkqBSqy673r9pZa76A-8">
          <mxGeometry relative="1" as="geometry" />
        </mxCell>
        <mxCell id="0HQkqBSqy673r9pZa76A-27" style="edgeStyle=orthogonalEdgeStyle;rounded=0;orthogonalLoop=1;jettySize=auto;html=1;exitX=1;exitY=0.75;exitDx=0;exitDy=0;entryX=0;entryY=0.75;entryDx=0;entryDy=0;fillColor=#dae8fc;strokeColor=#6c8ebf;" edge="1" parent="1" source="0HQkqBSqy673r9pZa76A-9" target="0HQkqBSqy673r9pZa76A-10">
          <mxGeometry relative="1" as="geometry" />
        </mxCell>
        <mxCell id="0HQkqBSqy673r9pZa76A-9" value="getBean(A.class)" style="rounded=0;whiteSpace=wrap;html=1;" vertex="1" parent="1">
          <mxGeometry x="440" y="480" width="80" height="40" as="geometry" />
        </mxCell>
        <mxCell id="0HQkqBSqy673r9pZa76A-38" style="edgeStyle=orthogonalEdgeStyle;rounded=0;orthogonalLoop=1;jettySize=auto;html=1;exitX=0;exitY=0.25;exitDx=0;exitDy=0;entryX=1;entryY=0.25;entryDx=0;entryDy=0;fillColor=#d5e8d4;strokeColor=#82b366;" edge="1" parent="1" source="0HQkqBSqy673r9pZa76A-10" target="0HQkqBSqy673r9pZa76A-9">
          <mxGeometry relative="1" as="geometry" />
        </mxCell>
        <mxCell id="0HQkqBSqy673r9pZa76A-10" value="将第二步实例化的A对象直接返回" style="rounded=0;whiteSpace=wrap;html=1;" vertex="1" parent="1">
          <mxGeometry x="600" y="480" width="80" height="40" as="geometry" />
        </mxCell>
        <mxCell id="0HQkqBSqy673r9pZa76A-29" value="尝试获取A对象" style="text;html=1;align=center;verticalAlign=middle;resizable=0;points=[];autosize=1;strokeColor=#6c8ebf;fillColor=#dae8fc;" vertex="1" parent="1">
          <mxGeometry x="190" y="280" width="100" height="20" as="geometry" />
        </mxCell>
        <mxCell id="0HQkqBSqy673r9pZa76A-31" value="返回成品A对象" style="text;html=1;align=center;verticalAlign=middle;resizable=0;points=[];autosize=1;strokeColor=#82b366;fillColor=#d5e8d4;" vertex="1" parent="1">
          <mxGeometry x="190" y="220" width="100" height="20" as="geometry" />
        </mxCell>
        <mxCell id="0HQkqBSqy673r9pZa76A-32" value="依赖属性b" style="text;html=1;align=center;verticalAlign=middle;resizable=0;points=[];autosize=1;strokeColor=#6c8ebf;fillColor=#dae8fc;" vertex="1" parent="1">
          <mxGeometry x="230" y="320" width="70" height="20" as="geometry" />
        </mxCell>
        <mxCell id="0HQkqBSqy673r9pZa76A-33" value="注入属性b" style="text;html=1;align=center;verticalAlign=middle;resizable=0;points=[];autosize=1;strokeColor=#82b366;fillColor=#d5e8d4;" vertex="1" parent="1">
          <mxGeometry x="340" y="300" width="70" height="20" as="geometry" />
        </mxCell>
        <mxCell id="0HQkqBSqy673r9pZa76A-35" value="尝试获取B对象" style="text;html=1;align=center;verticalAlign=middle;resizable=0;points=[];autosize=1;strokeColor=#6c8ebf;fillColor=#dae8fc;" vertex="1" parent="1">
          <mxGeometry x="350" y="400" width="100" height="20" as="geometry" />
        </mxCell>
        <mxCell id="0HQkqBSqy673r9pZa76A-36" value="依赖属性a" style="text;html=1;align=center;verticalAlign=middle;resizable=0;points=[];autosize=1;strokeColor=#6c8ebf;fillColor=#dae8fc;" vertex="1" parent="1">
          <mxGeometry x="390" y="450" width="70" height="20" as="geometry" />
        </mxCell>
        <mxCell id="0HQkqBSqy673r9pZa76A-37" value="尝试获取A对象" style="text;html=1;align=center;verticalAlign=middle;resizable=0;points=[];autosize=1;strokeColor=#6c8ebf;fillColor=#dae8fc;" vertex="1" parent="1">
          <mxGeometry x="510" y="520" width="100" height="20" as="geometry" />
        </mxCell>
        <mxCell id="0HQkqBSqy673r9pZa76A-39" value="返回半成品A对象" style="text;html=1;align=center;verticalAlign=middle;resizable=0;points=[];autosize=1;strokeColor=#82b366;fillColor=#d5e8d4;" vertex="1" parent="1">
          <mxGeometry x="510" y="460" width="110" height="20" as="geometry" />
        </mxCell>
        <mxCell id="0HQkqBSqy673r9pZa76A-40" value="注入属性a" style="text;html=1;align=center;verticalAlign=middle;resizable=0;points=[];autosize=1;strokeColor=#82b366;fillColor=#d5e8d4;" vertex="1" parent="1">
          <mxGeometry x="490" y="420" width="70" height="20" as="geometry" />
        </mxCell>
        <mxCell id="0HQkqBSqy673r9pZa76A-42" value="返回成品B对象" style="text;html=1;align=center;verticalAlign=middle;resizable=0;points=[];autosize=1;strokeColor=#82b366;fillColor=#d5e8d4;" vertex="1" parent="1">
          <mxGeometry x="350" y="340" width="100" height="20" as="geometry" />
        </mxCell>
      </root>
    </mxGraphModel>
  </diagram>
</mxfile>
